HIERARCHY
ROOT Hips
{
  OFFSET 13.6774 106.653 -34.4427
  CHANNELS 6 Xposition Yposition Zposition Zrotation Xrotation Yrotation
  JOINT ToSpine
  {
    OFFSET -2.69724 7.43032 -0.144315
    CHANNELS 3 Zrotation Xrotation Yrotation
    JOINT Spine
    {
      OFFSET -0.0310711 10.7595 1.96963
      CHANNELS 3 Zrotation Xrotation Yrotation
      JOINT Spine1
      {
        OFFSET 19.9056 3.91189 0.764692
        CHANNELS 3 Zrotation Xrotation Yrotation
        JOINT Neck
        {
          OFFSET 25.9749 7.03908 -0.130764
          CHANNELS 3 Zrotation Xrotation Yrotation
          JOINT Head
          {
            OFFSET 9.52751 0.295786 -0.907742
            CHANNELS 3 Zrotation Xrotation Yrotation
            End Site
            {
              OFFSET 16.4037 0.713936 2.7358
            }
          }
        }
        JOINT LeftShoulder
        {
          OFFSET 17.7449 4.33886 11.7777
          CHANNELS 3 Zrotation Xrotation Yrotation
          JOINT LeftArm
          {
            OFFSET 0.911315 1.27913 9.80584
            CHANNELS 3 Zrotation Xrotation Yrotation
            JOINT LeftForeArm
            {
              OFFSET 28.6126 1.18197 -3.53199
              CHANNELS 3 Zrotation Xrotation Yrotation
              JOINT LeftHand
              {
                OFFSET 27.5088 0.0218783 0.327423
                CHANNELS 3 Zrotation Xrotation Yrotation
                End Site
                {
                  OFFSET 18.6038 -0.000155887 0.382096
                }
              }
            }
          }
        }
        JOINT RightShoulder
        {
          OFFSET 17.1009 2.89543 -12.2328
          CHANNELS 3 Zrotation Xrotation Yrotation
          JOINT RightArm
          {
            OFFSET 1.4228 0.178766 -10.211
            CHANNELS 3 Zrotation Xrotation Yrotation
            JOINT RightForeArm
            {
              OFFSET 28.733 1.87905 2.64907
              CHANNELS 3 Zrotation Xrotation Yrotation
              JOINT RightHand
              {
                OFFSET 27.4588 0.290562 -0.101845
                CHANNELS 3 Zrotation Xrotation Yrotation
                End Site
                {
                  OFFSET 17.8396 -0.255518 -0.000602873
                }
              }
            }
          }
        }
      }
    }
  }
  JOINT LeftUpLeg
  {
    OFFSET -5.61296 -2.22332 -10.2353
    CHANNELS 3 Zrotation Xrotation Yrotation
    JOINT LeftLeg
    {
      OFFSET 2.56703 -44.7417 -7.93097
      CHANNELS 3 Zrotation Xrotation Yrotation
      JOINT LeftFoot
      {
        OFFSET 3.16933 -46.5642 -3.96578
        CHANNELS 3 Zrotation Xrotation Yrotation
        JOINT LeftToeBase
        {
          OFFSET 0.346054 -6.02161 12.8035
          CHANNELS 3 Zrotation Xrotation Yrotation
          End Site
          {
            OFFSET 0.134235 -1.35082 5.13018
          }
        }
      }
    }
  }
  JOINT RightUpLeg
  {
    OFFSET -5.7928 -1.72406 10.6446
    CHANNELS 3 Zrotation Xrotation Yrotation
    JOINT RightLeg
    {
      OFFSET -2.57161 -44.7178 -7.85259
      CHANNELS 3 Zrotation Xrotation Yrotation
      JOINT RightFoot
      {
        OFFSET -3.10148 -46.5936 -4.03391
        CHANNELS 3 Zrotation Xrotation Yrotation
        JOINT RightToeBase
        {
          OFFSET -0.0828122 -6.13587 12.8035
          CHANNELS 3 Zrotation Xrotation Yrotation
          End Site
          {
            OFFSET -0.131328 -1.35082 5.13018
          }
        }
      }
    }
  }
}
MOTION
Frames: 17
Frame Time: 0.03333333333333333
0.0000 93.1000 0.0000 -66.8873 -4.0205 -179.8120 -71.3191 -1.3936 88.2456 130.7272 62.8602 -62.8312 -8.6159 19.8221 8.2333 -138.1862 49.3844 142.3423 80.8053 81.3616 -50.0150 -1.9938 -15.8596 -25.6248 -105.5327 27.9072 -79.4097 17.3052 6.1285 -69.4780 0.0181 2.4367 -0.7766 -2.5638 5.5442 47.2282 -64.8865 -30.5804 90.0211 16.6359 -19.9044 39.5196 0.8250 -2.8764 0.3688 -4.5706 20.0158 78.0894 -26.0156 78.0087 -1.8692 -6.5479 -9.3492 -3.2682 11.1339 -23.0198 21.9212 -11.4030 -2.9219 89.2030 165.6305 71.0831 -167.7966 -7.3350 -23.1751 1.4960 1.7761 -20.6173 -24.9713 
0.0000 93.1000 0.0000 -65.6283 -1.2498 178.0341 -71.1592 -0.6220 88.5068 129.8104 61.9078 -60.5411 -8.4111 19.2401 8.0857 -140.1713 48.9583 143.0709 82.6450 82.7992 -51.9567 -0.9039 -16.0533 -25.1649 -102.4579 28.0785 -80.4699 21.7524 7.1835 -72.8633 0.1365 1.2992 0.4605 -3.1206 5.7330 48.3476 -60.5752 -32.1178 87.6896 16.2116 -21.1150 40.3371 0.1867 -1.0414 0.3604 -6.5705 22.0087 77.9707 -21.3719 76.0213 -6.2349 -6.2295 -9.7264 -1.7749 11.6074 -24.1813 23.5436 -7.4591 -3.3719 88.0682 164.9511 70.7145 -166.9594 -9.9716 -19.6947 0.8397 0.4327 -25.9957 -31.7693 
0.0000 93.1000 0.0000 -64.7541 1.1962 176.5913 -71.2243 0.0658 88.0687 129.7719 62.0756 -59.9471 -8.6283 18.1406 7.8651 -145.0651 49.3866 146.0524 82.9100 83.7858 -53.6558 -0.4044 -16.3766 -25.6470 -99.3117 28.8741 -78.1992 22.4765 6.0968 -75.0647 -0.0690 0.7199 -0.1879 -2.8229 6.2580 46.7995 -58.9678 -34.8524 83.7818 18.1077 -19.9985 43.6788 -0.0190 -0.4704 -0.0032 -11.8411 25.2821 80.5031 -16.6043 72.8454 -11.7117 -7.8797 -9.7542 -1.6059 13.0088 -23.5774 25.5661 -4.7312 -6.2939 86.6872 165.3431 71.4289 -169.0044 -12.3351 -16.1773 1.6612 -0.2508 -30.0487 -27.0294 
0.0000 93.1000 0.0000 -64.6686 5.4621 173.0143 -71.2393 1.0028 88.0362 128.8049 62.2183 -57.9289 -8.8807 17.6553 8.4613 -148.1917 49.2368 150.5166 89.1846 84.1517 -61.2900 0.1726 -15.9068 -26.1313 -95.6122 29.7187 -75.2308 26.3399 7.1616 -75.2881 0.2621 0.3790 -0.2147 -2.2932 6.2119 45.8876 -57.1929 -37.1928 79.6827 19.8291 -20.1105 47.6372 0.0672 -0.0568 0.3533 -20.3313 28.2409 85.7422 -11.4396 67.6045 -17.2646 -9.4172 -8.2156 -1.4470 13.3692 -25.9044 27.5604 -2.9098 -9.3496 87.0260 162.0600 74.0072 -159.7540 -13.0779 -10.9568 2.1429 -0.4867 -36.4588 -34.9428 
0.0000 93.1000 0.0000 -64.3727 10.4760 168.8344 -71.3445 0.6755 87.8632 128.8371 62.1815 -55.5157 -9.8755 17.6540 8.1772 -150.0885 48.4937 152.3917 106.7534 85.1521 -77.7504 0.1003 -15.6096 -27.8925 -91.1603 32.7701 -71.2877 28.8394 9.1013 -73.1369 0.7100 -0.0802 -0.0897 -2.6674 6.1589 45.0646 -58.9999 -39.8151 75.1698 21.2849 -19.1389 49.3636 -0.0913 0.5588 0.0451 -31.6655 30.0040 94.3107 -6.5315 57.6341 -16.3113 -9.5159 -7.0792 -0.2883 12.4653 -24.3448 20.2988 -1.5701 -13.6528 84.9775 157.9618 76.8562 -159.2013 -11.9603 -13.8394 1.2760 -1.4762 -32.4425 -32.2880 
0.0000 93.1000 0.0000 -62.2661 14.4894 163.1294 -71.3445 -1.5321 87.8954 126.6184 63.9273 -50.8789 -11.7010 18.3359 7.2723 -152.1697 46.7993 156.6917 145.6470 85.7339 -113.7491 -2.3985 -14.7999 -28.2937 -88.4740 36.5232 -67.8083 29.0063 12.3526 -68.4173 -0.2566 3.7463 0.7121 -1.1085 5.0103 45.0276 -60.0746 -42.0674 72.4494 20.3438 -18.1272 49.9687 2.4388 -3.9405 1.8981 -44.6502 27.7598 101.8311 -3.3637 45.3606 -10.7071 -13.8660 -2.0639 -1.8842 8.8031 -19.6258 8.3568 -1.3965 -16.3054 82.8987 147.9067 80.7352 -148.2078 -14.0874 -12.4170 2.5462 0.5806 -34.3573 -30.5563 
0.0000 93.1000 0.0000 -60.2561 16.9420 158.6238 -70.9456 0.1126 88.0335 123.8285 64.6580 -44.9503 -10.9276 18.3487 5.7867 -152.2074 45.4080 159.8516 -165.5786 84.6742 -160.8185 -0.0292 -14.0811 -27.8045 -86.3061 41.8964 -67.4676 26.0171 15.0636 -61.0388 -0.1658 0.2784 -0.3729 -2.4219 5.7924 45.2273 -61.1121 -39.4201 70.9246 20.0057 -18.2374 50.5936 0.1022 0.2591 0.3772 -52.0280 25.3596 103.9034 -2.3417 37.6228 -6.5904 -16.0818 8.1950 2.5044 5.8922 -14.3634 5.9051 -2.6816 -19.1002 79.2096 119.1465 84.3492 -117.9435 -11.9353 -14.4134 1.4035 0.2301 -30.2289 -29.8389 
0.0000 93.1000 0.0000 -58.5834 20.7734 153.2603 -71.0481 -0.2033 88.1137 120.6147 65.7908 -40.9077 -10.0019 18.1841 5.7857 -155.1294 43.3746 163.2880 -154.0546 83.0692 -172.0947 -0.1974 -13.1273 -28.2085 -85.1426 46.5003 -64.8968 22.1287 15.9910 -55.5278 -0.0550 0.6009 -0.0333 -2.5410 5.3137 46.8932 -65.1209 -34.9679 69.9940 20.1094 -17.0739 51.9399 0.3020 -0.0389 0.4980 -56.9519 19.5759 98.7522 -1.4663 31.9130 -3.8257 -16.6713 17.8011 3.4196 2.5945 -9.0519 7.4291 -3.7691 -19.9852 74.9061 54.0185 85.2289 -52.5523 -11.5246 -12.7384 1.2401 -0.3901 -32.4728 -32.0329 
0.0000 93.1000 0.0000 -54.6163 24.4619 147.5645 -71.0996 -0.6123 88.2660 118.8739 67.0699 -37.9303 -9.3354 19.0355 5.9159 -159.0739 42.1623 168.2159 -156.4438 81.6606 -169.5990 -0.5562 -12.4200 -28.8683 -85.5710 50.6716 -62.0933 18.6520 16.2177 -51.0837 0.0129 1.0347 -0.0738 -2.6377 4.7187 49.1422 -68.9651 -29.0743 70.6886 20.1868 -15.8797 54.9928 0.6447 -0.6079 0.5415 -55.8123 14.1023 92.3053 -2.5041 38.0283 -3.1667 -9.9307 12.8685 1.8715 -0.3239 -6.0076 10.1190 -6.6111 -17.3344 72.9532 24.0980 81.0423 -22.4767 -11.9702 -8.0223 0.9474 0.5129 -29.1500 -29.1274 
0.0000 93.1000 0.0000 -49.2376 29.4335 140.6142 -71.1615 -0.7849 88.1516 119.8806 68.4612 -36.9455 -7.1779 19.9942 5.9044 -162.9217 40.5026 171.9620 -154.8292 79.9381 -171.2709 -0.6122 -11.9052 -29.2255 -83.1712 54.6991 -60.0938 17.1030 16.0735 -48.1595 -0.0036 1.0924 0.1711 -2.6994 4.7069 49.3256 -72.2707 -24.1267 73.8732 23.0715 -15.1958 58.7839 0.3166 -0.7210 0.1791 -53.0383 10.9945 90.9308 -3.8414 50.0415 -5.2188 -7.0835 6.7803 1.1208 -0.0302 -7.0439 12.7443 -11.4984 -11.1540 72.0945 12.9932 75.9192 -12.0337 -9.3408 -12.7294 0.4758 0.9964 -24.6254 -20.1382 
0.0000 93.1000 0.0000 -43.2791 32.2536 136.5312 -71.2111 -0.7436 88.0494 121.7317 69.5530 -36.5837 -5.5540 21.2462 5.1447 -166.8932 39.3448 176.1295 -153.9185 78.8010 -171.3976 -0.6915 -12.0545 -30.2544 -75.3624 57.9905 -65.0582 16.7625 18.2264 -45.2909 0.2680 1.2053 0.0138 -2.4792 5.1610 48.1810 -77.0263 -22.0424 79.1272 26.9598 -12.7564 65.9723 -0.0087 -1.0138 -0.3150 -45.9135 9.9130 90.0468 -7.6377 65.3150 -4.8445 -6.8821 4.5129 0.3335 2.0513 -9.2308 10.4534 -16.4403 -5.3693 71.7541 8.3497 71.9374 -10.4337 -10.1979 -19.5802 1.0749 1.6051 -21.1038 -7.7998 
0.0000 93.1000 0.0000 -38.1633 34.8569 130.5547 -71.2629 0.9682 88.0412 124.7816 70.5643 -38.1796 -4.6852 23.1522 4.3759 -172.0650 38.3124 179.3333 -155.8215 78.0091 -170.4854 0.3215 -12.7169 -31.0188 -66.3128 60.7134 -71.1038 17.0908 19.4110 -42.2412 -0.6466 0.9630 0.0946 -1.3380 5.7405 46.7854 -79.7881 -20.3855 83.8212 29.7783 -9.3014 74.9478 0.0772 -0.7588 0.2647 -35.2061 8.4988 88.9512 -26.2928 78.8350 8.7592 -7.0106 4.1030 -0.7131 3.9263 -11.7906 11.5192 -19.5406 -0.9968 73.0160 7.4297 69.1026 -5.7123 -12.4087 -19.6362 2.6865 2.7063 -23.2001 -15.7984 
0.0000 93.1000 0.0000 -33.0560 38.0449 123.3713 -71.1904 0.2830 88.2482 135.7934 69.4552 -48.8247 -6.5486 25.8132 2.9449 -174.0587 37.4090 -178.1315 -157.3551 77.7015 -170.5248 -0.0622 -12.8174 -30.9951 -56.8497 63.1976 -75.0630 18.4925 22.1756 -42.2086 0.0135 0.7340 0.0325 -2.0603 6.7970 42.1462 -80.9633 -22.2946 90.9007 35.8070 -3.9528 84.0814 -0.2247 -0.4473 -0.0634 -25.7252 7.1902 90.5790 -115.2048 83.7883 100.2833 -4.4454 2.8938 -0.5980 3.6680 -11.9611 11.9843 -26.1914 1.8554 76.0469 6.9842 64.9194 1.1992 -14.0939 -18.5916 1.8229 1.5572 -27.6296 -22.9352 
0.0000 93.1000 0.0000 -30.3120 40.7597 117.8036 -71.1300 1.8760 88.4299 135.5601 71.3515 -50.5952 -7.0877 26.9679 3.4909 -170.9109 36.5437 -178.4439 -151.5698 77.1153 -174.7675 0.9419 -12.1467 -29.7755 -48.5381 66.7122 -76.8259 21.8226 22.4629 -48.0891 -0.1902 0.6737 -0.0294 -0.5152 6.9377 38.9524 -81.2037 -24.2087 96.6901 40.5700 1.1953 91.0399 1.1527 -0.3175 1.3529 -15.3115 3.3664 93.1392 -144.0675 81.3617 131.2555 -3.7729 3.3757 -1.9505 3.3171 -10.6147 12.2987 -34.1529 1.2173 77.9703 5.6338 57.8442 6.7355 -9.4756 -19.8864 3.3043 3.4881 -25.6723 -16.5418 
0.0000 93.1000 0.0000 -29.0470 40.4490 113.6694 -71.2236 0.1631 88.7291 129.7295 73.2825 -47.7943 -8.4977 28.3188 3.1333 -170.0969 37.4255 -179.4805 -149.4531 76.9059 -176.6406 0.0400 -11.7724 -28.2910 -47.3974 68.7265 -72.3196 25.7776 20.5767 -54.4846 0.0632 0.0869 -0.1630 -2.2670 7.0923 36.0483 -77.9372 -26.0879 102.8415 40.9814 5.4879 96.8152 0.4339 0.3129 0.3421 -5.9801 1.2053 95.0407 -135.5156 82.9268 123.7251 -2.6568 2.8305 -0.2975 3.8725 -11.3055 12.0687 -43.4660 1.2232 81.0311 3.3453 49.1070 7.0078 -6.0204 -15.1894 0.5138 2.8967 -26.5258 -3.6076 
0.0000 93.1000 0.0000 -27.3628 42.6333 111.3494 -71.5950 1.1928 88.4947 130.7524 74.3739 -48.4590 -7.8587 28.8108 2.0234 -170.0869 36.4045 176.9946 -148.4079 75.8258 -179.3821 0.6269 -11.8298 -26.2269 -48.1385 69.5373 -67.8456 25.4692 16.9331 -58.0780 0.4002 -0.1010 -0.5403 -1.0752 7.1916 35.0770 -76.8952 -29.6878 103.1943 42.0199 11.3577 100.9810 0.1555 0.2436 0.3494 -1.1984 -0.0952 95.9370 -54.4982 83.8931 41.5631 -2.5544 0.9739 -1.1664 3.2301 -10.8889 11.1415 -55.4001 1.7396 83.0911 2.2125 36.0922 5.9167 -2.4378 2.5590 0.3028 4.8328 -30.2362 14.0939 
0.0000 93.1000 0.0000 -24.2128 42.4095 108.4753 -71.4506 0.2645 88.0009 126.7524 76.2683 -45.1979 -7.1919 29.6247 -0.7856 -171.1040 35.7774 175.8244 -151.5232 75.0446 -179.1474 -0.0581 -12.8402 -25.6303 -52.3774 67.9218 -63.0844 26.2830 15.9323 -60.3468 -0.3470 -0.0008 -0.3116 -1.7857 6.7188 35.2405 -75.1463 -32.8735 100.7270 42.2946 11.4563 103.0059 -0.5250 0.2347 0.4340 0.8117 -0.2258 97.9261 -13.5428 72.9780 -3.4762 -4.5680 -0.5986 -0.4041 4.8792 -13.5049 13.9603 -62.5178 0.8473 80.6571 -0.2658 27.0827 16.2971 7.0827 18.4401 -2.9642 2.3309 -21.1057 8.9750 
